<?xml version="1.0" encoding="utf-8"?>
<!-- Generator: Adobe Illustrator 23.0.4, SVG Export Plug-In . SVG Version: 6.00 Build 0)  -->
<svg version="1.1" id="Layer_1" xmlns="http://www.w3.org/2000/svg" xmlns:xlink="http://www.w3.org/1999/xlink" x="0px" y="0px"
	 viewBox="0 0 110 50" style="enable-background:new 0 0 110 50;" xml:space="preserve">
<style type="text/css">
	.st0{enable-background:new    ;}
	.st1{fill:#FFFFFF;}
</style>
<title>logo_b</title>
<g>
	<g class="st0">
		<path class="st1" d="M5.51,48.48l-0.31-1.16H3.32L3,48.48H1.99l1.7-5.87h1.12l1.7,5.87H5.51z M4.25,43.64l-0.75,2.81H5L4.25,43.64
			z"/>
		<path class="st1" d="M9.89,48.48l-0.97-2.22H8.22v2.22H7.28V42.6h1.96c0.99,0,1.67,0.73,1.67,1.81c0,1.02-0.55,1.53-1.06,1.67
			l1.11,2.39H9.89z M9.94,44.43c0-0.58-0.32-0.97-0.83-0.97H8.22v1.94H9.1C9.61,45.4,9.94,45.01,9.94,44.43z"/>
		<path class="st1" d="M11.81,45.54c0-1.77,0.89-3.04,2.32-3.04c1,0,1.51,0.64,1.8,1.29l-0.77,0.36c-0.2-0.47-0.55-0.79-1.03-0.79
			c-0.83,0-1.36,0.92-1.36,2.17s0.53,2.17,1.36,2.17c0.49,0,0.85-0.37,1.03-0.86l0.78,0.35c-0.3,0.69-0.81,1.37-1.81,1.37
			C12.7,48.58,11.81,47.31,11.81,45.54z"/>
		<path class="st1" d="M19.93,48.48v-2.59h-2.1v2.59h-0.94V42.6h0.94v2.42h2.1V42.6h0.94v5.87H19.93z"/>
		<path class="st1" d="M22.14,48.48V42.6h0.94v5.87H22.14z"/>
		<path class="st1" d="M25.32,48.48v-5.02h-1.31V42.6h3.55v0.85h-1.3v5.02H25.32z"/>
		<path class="st1" d="M28.5,48.48V42.6h3.12v0.85h-2.18v1.59h2.12v0.85h-2.12v1.72h2.18v0.85H28.5z"/>
		<path class="st1" d="M32.5,45.54c0-1.77,0.89-3.04,2.32-3.04c1,0,1.51,0.64,1.81,1.29l-0.77,0.36c-0.2-0.47-0.55-0.79-1.03-0.79
			c-0.83,0-1.36,0.92-1.36,2.17s0.53,2.17,1.36,2.17c0.49,0,0.85-0.37,1.03-0.86l0.78,0.35c-0.3,0.69-0.81,1.37-1.81,1.37
			C33.39,48.58,32.5,47.31,32.5,45.54z"/>
		<path class="st1" d="M38.54,48.48v-5.02h-1.31V42.6h3.55v0.85h-1.3v5.02H38.54z"/>
		<path class="st1" d="M41.36,47.83l0.48-0.76c0.31,0.36,0.79,0.64,1.35,0.64c0.6,0,0.89-0.37,0.89-0.79c0-1.21-2.55-0.83-2.55-2.77
			c0-0.92,0.7-1.65,1.77-1.65c0.67,0,1.23,0.23,1.63,0.64l-0.45,0.74c-0.33-0.35-0.76-0.51-1.21-0.51c-0.46,0-0.78,0.28-0.78,0.71
			c0,1.07,2.55,0.79,2.55,2.76c0,0.95-0.62,1.73-1.85,1.73C42.39,48.58,41.78,48.29,41.36,47.83z"/>
		<path class="st1" d="M51.5,48.48c-0.11-0.14-0.25-0.31-0.37-0.48c-0.36,0.36-0.8,0.59-1.34,0.59c-0.85,0-1.52-0.57-1.52-1.64
			c0-0.89,0.49-1.36,1.04-1.73c-0.21-0.45-0.36-0.9-0.36-1.28c0-0.83,0.55-1.42,1.3-1.42c0.66,0,1.19,0.48,1.19,1.21
			c0,0.85-0.6,1.26-1.17,1.65c0.14,0.26,0.31,0.51,0.44,0.71c0.15,0.24,0.3,0.45,0.44,0.65c0.2-0.41,0.33-0.85,0.42-1.19l0.69,0.33
			c-0.16,0.51-0.37,1.04-0.65,1.49c0.27,0.35,0.56,0.7,0.9,1.13H51.5z M50.71,47.44c-0.23-0.31-0.44-0.6-0.58-0.82
			c-0.16-0.25-0.33-0.52-0.49-0.79c-0.29,0.26-0.49,0.59-0.49,1.06c0,0.62,0.37,1,0.78,1C50.22,47.88,50.48,47.7,50.71,47.44z
			 M49.97,44.78c0.41-0.27,0.73-0.55,0.73-1.02c0-0.4-0.2-0.59-0.43-0.59c-0.31,0-0.51,0.27-0.51,0.77
			C49.75,44.19,49.84,44.48,49.97,44.78z"/>
		<path class="st1" d="M55.82,48.48V42.6h1.93c1.12,0,1.69,0.84,1.69,1.82c0,0.99-0.57,1.82-1.69,1.82h-1v2.23H55.82z M58.48,44.43
			c0-0.57-0.32-0.97-0.83-0.97h-0.89v1.94h0.89C58.15,45.4,58.48,45.01,58.48,44.43z"/>
		<path class="st1" d="M63.39,48.48l-0.32-1.16H61.2l-0.32,1.16h-1.01l1.7-5.87h1.12l1.7,5.87H63.39z M62.14,43.64l-0.75,2.81h1.5
			L62.14,43.64z"/>
		<path class="st1" d="M67.78,48.48l-0.97-2.22H66.1v2.22h-0.94V42.6h1.96c0.99,0,1.67,0.73,1.67,1.81c0,1.02-0.55,1.53-1.06,1.67
			l1.11,2.39H67.78z M67.82,44.43c0-0.58-0.32-0.97-0.83-0.97H66.1v1.94h0.89C67.5,45.4,67.82,45.01,67.82,44.43z"/>
		<path class="st1" d="M70.87,48.48v-5.02h-1.31V42.6h3.55v0.85h-1.3v5.02H70.87z"/>
		<path class="st1" d="M77.11,48.48l-2.13-3.96v3.96h-0.94V42.6H75l2.07,3.85V42.6h0.95v5.87H77.11z"/>
		<path class="st1" d="M79.29,48.48V42.6h3.12v0.85h-2.18v1.59h2.12v0.85h-2.12v1.72h2.18v0.85H79.29z"/>
		<path class="st1" d="M86.12,48.48l-0.97-2.22h-0.71v2.22h-0.94V42.6h1.96c0.99,0,1.67,0.73,1.67,1.81c0,1.02-0.55,1.53-1.06,1.67
			l1.11,2.39H86.12z M86.17,44.43c0-0.58-0.32-0.97-0.83-0.97h-0.89v1.94h0.89C85.84,45.4,86.17,45.01,86.17,44.43z"/>
		<path class="st1" d="M87.9,47.83l0.48-0.76c0.31,0.36,0.79,0.64,1.35,0.64c0.6,0,0.89-0.37,0.89-0.79c0-1.21-2.55-0.83-2.55-2.77
			c0-0.92,0.7-1.65,1.77-1.65c0.67,0,1.23,0.23,1.63,0.64l-0.45,0.74c-0.33-0.35-0.76-0.51-1.21-0.51c-0.46,0-0.78,0.28-0.78,0.71
			c0,1.07,2.55,0.79,2.55,2.76c0,0.95-0.62,1.73-1.85,1.73C88.93,48.58,88.32,48.29,87.9,47.83z"/>
		<path class="st1" d="M94.58,48.48V42.6h0.94v5.87H94.58z"/>
		<path class="st1" d="M99.86,48.48l-2.13-3.96v3.96H96.8V42.6h0.95l2.07,3.85V42.6h0.95v5.87H99.86z"/>
		<path class="st1" d="M101.83,45.54c0-1.77,0.89-3.04,2.32-3.04c1,0,1.51,0.64,1.81,1.29l-0.78,0.36c-0.2-0.47-0.55-0.79-1.03-0.79
			c-0.83,0-1.36,0.92-1.36,2.17s0.53,2.17,1.36,2.17c0.49,0,0.85-0.37,1.03-0.86l0.78,0.35c-0.3,0.69-0.81,1.37-1.81,1.37
			C102.72,48.58,101.83,47.31,101.83,45.54z"/>
		<path class="st1" d="M106.82,47.97c0-0.32,0.26-0.58,0.57-0.58c0.32,0,0.57,0.26,0.57,0.58c0,0.33-0.25,0.59-0.57,0.59
			C107.09,48.56,106.82,48.3,106.82,47.97z"/>
	</g>
	<g class="st0">
		<path class="st1" d="M65.26,23.54h2.24c0.61,0,1.07,0.05,1.4,0.15c0.33,0.1,0.57,0.24,0.74,0.43s0.27,0.41,0.33,0.68
			c0.06,0.26,0.09,0.67,0.09,1.23v0.77c0,0.56-0.06,0.98-0.17,1.24s-0.32,0.46-0.62,0.6s-0.7,0.21-1.18,0.21h-0.6v3.57h-2.23V23.54z
			 M67.49,25.06v2.25c0.06,0,0.12,0.01,0.16,0.01c0.21,0,0.35-0.05,0.43-0.16c0.08-0.1,0.12-0.32,0.12-0.65v-0.73
			c0-0.3-0.05-0.5-0.14-0.59C67.97,25.11,67.78,25.06,67.49,25.06z"/>
		<path class="st1" d="M76.29,28.73c0,0.89-0.02,1.52-0.06,1.89c-0.04,0.37-0.17,0.71-0.38,1.01s-0.5,0.54-0.87,0.71
			s-0.79,0.25-1.27,0.25c-0.46,0-0.87-0.08-1.24-0.23c-0.37-0.15-0.66-0.39-0.88-0.7c-0.22-0.31-0.35-0.65-0.4-1.01
			c-0.04-0.36-0.06-1-0.06-1.91v-1.51c0-0.89,0.02-1.52,0.06-1.89c0.04-0.37,0.17-0.71,0.38-1.01c0.21-0.31,0.5-0.54,0.87-0.71
			s0.79-0.25,1.27-0.25c0.46,0,0.87,0.08,1.24,0.23c0.37,0.16,0.66,0.39,0.88,0.7c0.22,0.31,0.35,0.65,0.4,1.01
			c0.04,0.36,0.06,1,0.06,1.91V28.73z M74.06,25.82c0-0.41-0.02-0.68-0.07-0.79s-0.13-0.17-0.27-0.17c-0.12,0-0.21,0.05-0.27,0.14
			c-0.06,0.09-0.09,0.37-0.09,0.82v4.13c0,0.51,0.02,0.83,0.06,0.95c0.04,0.12,0.13,0.18,0.28,0.18c0.15,0,0.25-0.07,0.29-0.21
			c0.04-0.14,0.06-0.47,0.06-0.99V25.82z"/>
		<path class="st1" d="M82.34,26.22h-2.07v-0.66c0-0.31-0.03-0.5-0.08-0.58c-0.05-0.08-0.14-0.13-0.26-0.13
			c-0.13,0-0.24,0.06-0.3,0.17c-0.07,0.11-0.1,0.28-0.1,0.51c0,0.3,0.04,0.52,0.12,0.67c0.07,0.15,0.28,0.33,0.63,0.54
			c0.99,0.61,1.62,1.11,1.87,1.5c0.26,0.39,0.39,1.02,0.39,1.89c0,0.63-0.07,1.1-0.21,1.39c-0.14,0.3-0.42,0.55-0.83,0.75
			c-0.41,0.2-0.89,0.3-1.43,0.3c-0.6,0-1.11-0.12-1.53-0.35s-0.7-0.53-0.83-0.89c-0.13-0.36-0.2-0.87-0.2-1.54v-0.58h2.07v1.08
			c0,0.33,0.03,0.54,0.09,0.64c0.06,0.1,0.16,0.14,0.31,0.14s0.26-0.06,0.33-0.18s0.11-0.3,0.11-0.54c0-0.52-0.07-0.86-0.21-1.02
			c-0.14-0.16-0.49-0.43-1.04-0.8c-0.55-0.38-0.92-0.65-1.1-0.83c-0.18-0.17-0.33-0.41-0.45-0.71s-0.18-0.69-0.18-1.16
			c0-0.68,0.08-1.17,0.25-1.49s0.44-0.56,0.81-0.74s0.83-0.27,1.36-0.27c0.58,0,1.07,0.1,1.48,0.29c0.41,0.19,0.68,0.44,0.81,0.73
			c0.13,0.29,0.2,0.79,0.2,1.5V26.22z"/>
		<path class="st1" d="M85.95,23.54v8.85h-2.23v-8.85H85.95z"/>
		<path class="st1" d="M91.84,23.54v1.77h-1.32v7.08h-2.23v-7.08h-1.32v-1.77H91.84z"/>
		<path class="st1" d="M95.07,23.54v8.85h-2.23v-8.85H95.07z"/>
		<path class="st1" d="M101.76,23.54l-1.13,8.85h-3.39l-1.29-8.85h2.35c0.27,2.44,0.47,4.5,0.58,6.19c0.12-1.71,0.24-3.22,0.37-4.54
			l0.15-1.65H101.76z"/>
		<path class="st1" d="M102.64,23.54h3.72v1.77h-1.49V27h1.39v1.68h-1.39v1.95h1.64v1.77h-3.86V23.54z"/>
	</g>
	<polygon class="st1" points="57.88,12.08 48.52,12.08 48.52,1.36 39.47,1.36 39.47,12.08 29.88,12.08 29.88,22 39.47,22 
		39.47,32.54 48.52,32.54 48.52,22 57.88,22 	"/>
	<polygon class="st1" points="29.08,25.31 21.38,16.77 28.38,9.02 21.6,1.5 14.6,9.25 7.48,1.34 1.08,8.78 8.04,16.52 0.48,24.89 
		7.26,32.4 14.8,24.05 21.88,31.92 	"/>
</g>
</svg>
