<?xml version="1.0" encoding="utf-8"?>
<!-- Generator: Adobe Illustrator 23.0.4, SVG Export Plug-In . SVG Version: 6.00 Build 0)  -->
<svg version="1.1" id="레이어_1" xmlns="http://www.w3.org/2000/svg" xmlns:xlink="http://www.w3.org/1999/xlink" x="0px"
	 y="0px" viewBox="0 0 34 34" style="enable-background:new 0 0 34 34;" xml:space="preserve">
<style type="text/css">
	.st0{opacity:0.7;fill:#FFFFFF;enable-background:new    ;}
	.st1{fill:#FFFFFF;}
	.st2{fill:#131313;}
</style>
<rect x="6" y="6" class="st0" width="22" height="22"/>
<rect id="사각형_210" class="st1" width="34" height="34"/>
<g id="그룹_28" transform="translate(-82 488)">
	<path id="패스_6" class="st2" d="M107.3-481h-5v1.7h3.8l-5.2,5.2l1.2,1.2l5.2-5.2v3.8h1.7v-6.7H107.3z"/>
	<path id="패스_7" class="st2" d="M90.7-481h5v1.7h-3.9l5.2,5.2l-1.1,1.2l-5.2-5.3v3.8H89v-6.6H90.7z"/>
	<path id="패스_8" class="st2" d="M107.3-461h-5v-1.7h3.8l-5.2-5.2l1.2-1.2l5.2,5.2v-3.8h1.7v6.7H107.3z"/>
	<path id="패스_9" class="st2" d="M90.7-461h5v-1.7h-3.9l5.2-5.2l-1.2-1.2l-5.2,5.2v-3.8H89v6.7H90.7z"/>
</g>
</svg>
