<svg id="Layer_1" data-name="Layer 1" xmlns="http://www.w3.org/2000/svg" viewBox="0 0 24 24"><defs><style>.cls-1{fill:#131313;}</style></defs><title>insta</title><path class="cls-1" d="M421.51,285.4a5.74,5.74,0,0,1,5.74,5.74v8.53a5.74,5.74,0,0,1-5.74,5.74H413a5.74,5.74,0,0,1-5.74-5.74v-8.53A5.74,5.74,0,0,1,413,285.4h8.53m0-2H413a7.76,7.76,0,0,0-7.74,7.74v8.53A7.76,7.76,0,0,0,413,307.4h8.53a7.76,7.76,0,0,0,7.74-7.74v-8.53a7.76,7.76,0,0,0-7.74-7.74h0Z" transform="translate(-405.25 -283.4)"/><circle class="cls-1" cx="18.63" cy="5.75" r="1.19"/><path class="cls-1" d="M417.25,291.65a3.75,3.75,0,1,1-3.75,3.75,3.75,3.75,0,0,1,3.75-3.75m0-2A5.75,5.75,0,1,0,423,295.4a5.75,5.75,0,0,0-5.75-5.75h0Z" transform="translate(-405.25 -283.4)"/></svg>