<svg id="Layer_1" data-name="Layer 1" xmlns="http://www.w3.org/2000/svg" viewBox="0 0 34 34"><defs><style>.cls-1{fill:#fff;}.cls-2{fill:#131313;}</style></defs><title>zoomout</title><g id="그룹_31" data-name="그룹 31"><rect id="사각형_211" data-name="사각형 211" class="cls-1" width="34" height="34"/><g id="그룹_30" data-name="그룹 30"><path id="패스_10" data-name="패스 10" class="cls-2" d="M21.05,14.83h5.67V12.94H22.39L28.33,7,27,5.67l-5.94,5.94V7.28H19.17v7.56h1.89Z" transform="translate(0 0)"/><path id="패스_11" data-name="패스 11" class="cls-2" d="M12.95,14.83H7.28V12.94h4.33L5.67,7,7,5.67l5.94,5.94V7.28h1.89v7.56H12.95Z" transform="translate(0 0)"/><path id="패스_12" data-name="패스 12" class="cls-2" d="M21.05,19.17h5.67v1.89H22.39L28.33,27,27,28.33l-5.94-5.94v4.33H19.17V19.16h1.89Z" transform="translate(0 0)"/><path id="패스_13" data-name="패스 13" class="cls-2" d="M12.95,19.17H7.28v1.89h4.33L5.67,27,7,28.33l5.94-5.94v4.33h1.89V19.16H12.95Z" transform="translate(0 0)"/></g></g></svg>